<svg xmlns="http://www.w3.org/2000/svg" viewBox="0 0 388.77 94.78"><defs><style>.cls-1{opacity:.8}.cls-2{fill:#62449a}.cls-3{fill:#3582c4}.cls-4{fill:#33439a}.cls-5{fill:#e51e26}.cls-6{fill:#ed7323}.cls-7{fill:#5755a4}</style></defs><title>logo</title><g id="Layer_1" data-name="Layer 1"><g class="cls-1"><path class="cls-2" d="M78.56 54.31H20.62a11.84 11.84 0 0 0 0 23.67h57.94a11.83 11.83 0 0 0 11.83-11.83c0-6.54-8.12-11.84-14.66-11.84"/></g><g class="cls-1"><path class="cls-3" d="M206.44 54.31H148.8a11.84 11.84 0 0 0 0 23.67h57.64a11.84 11.84 0 0 0 0-23.67"/></g><g class="cls-1"><path class="cls-4" d="M293.38 2.19h-55.93a11.83 11.83 0 1 0 0 23.66h55.93a11.83 11.83 0 0 0 0-23.66"/></g><g class="cls-1"><path class="cls-3" d="M293.38 71.12h-55.93a11.83 11.83 0 1 0 0 23.66h55.93a11.83 11.83 0 0 0 0-23.66"/></g><g class="cls-1"><path class="cls-5" d="M286.86 35.8h-49.41a11.83 11.83 0 1 0 0 23.66h49.41a11.83 11.83 0 1 0 0-23.66"/></g><g class="cls-1"><path class="cls-6" d="M129.56 83V13.68a11.84 11.84 0 1 0-23.67 0V83a11.84 11.84 0 0 0 23.67 0"/></g><g class="cls-1"><path class="cls-6" d="M249.31 83V14a11.83 11.83 0 1 0-23.66 0v69a11.83 11.83 0 0 0 23.66 0"/></g><g class="cls-1"><path class="cls-5" d="M200.44 83V46.6a11.83 11.83 0 1 0-23.66 0V83a11.83 11.83 0 1 0 23.66 0"/></g><g class="cls-1"><path class="cls-5" d="M336.17 56.08V11.83a11.83 11.83 0 0 0-23.66 0v44.25a11.83 11.83 0 0 0 23.66 0"/></g><g class="cls-1"><path class="cls-7" d="M388.77 56.32V12.07a11.83 11.83 0 1 0-23.66 0v44.25a11.83 11.83 0 0 0 23.66 0"/></g><g class="cls-1"><path class="cls-3" d="M39 7.36L1.43 76.48a11.83 11.83 0 0 0 20.8 11.29l37.52-69.12A11.83 11.83 0 0 0 39 7.36"/></g><g class="cls-1"><path class="cls-4" d="M167.27 7.36l-28.88 53.19a11.83 11.83 0 0 0 20.8 11.29l28.87-53.19a11.83 11.83 0 1 0-20.79-11.29"/></g><g class="cls-1"><path class="cls-5" d="M38.85 18.65l37.51 69.12a11.83 11.83 0 0 0 20.8-11.29L59.64 7.36a11.83 11.83 0 1 0-20.79 11.29"/></g><g class="cls-1"><path class="cls-6" d="M312.49 56.27a38.07 38.07 0 0 0 76.14 0 11.83 11.83 0 1 0-23.66 0 14.39 14.39 0 0 1-6.36 11.95 14.36 14.36 0 0 1-8.05 2.45 14.18 14.18 0 0 1-5.6-1.13 14.47 14.47 0 0 1-6.35-5.23 14.25 14.25 0 0 1-2.45-8 11.84 11.84 0 1 0-23.67 0"/></g></g></svg>